<svg version="1.1" xmlns="http://www.w3.org/2000/svg" width="42" height="32" viewBox="0 0 42 32">
<path d="M17.029 0.835c0.346-0 0.691-0.001 1.037-0.002 0.721-0.001 1.442 0 2.163 0.004 0.919 0.004 1.838 0.002 2.757-0.002 0.713-0.003 1.425-0.002 2.138 0 0.339 0 0.677-0 1.016-0.002 4.116-0.015 4.116-0.015 5.708 1.209 1.067 1.288 1.941 2.631 2.78 4.074 0.325 0.628 0.325 0.628 0.85 0.841 0.043-0.28 0.043-0.28 0.087-0.565 0.048-0.196 0.096-0.392 0.145-0.594 0.549-0.274 0.897-0.263 1.507-0.261 0.276-0.001 0.276-0.001 0.558-0.002 0.486 0.031 0.486 0.031 0.949 0.263 0 0.612 0 1.224 0 1.855-0.689 0.153-1.377 0.306-2.087 0.464 0.149 0.126 0.297 0.253 0.45 0.383 2.804 2.444 4.249 4.656 4.651 8.428 0.348 8.476 0.348 8.476-1.159 10.667-0.121 0.18-0.242 0.36-0.366 0.545-0.128 0.174-0.256 0.348-0.388 0.527-0.126 0.175-0.251 0.35-0.38 0.531-3.497 3.458-14.043 1.922-18.46 1.918-0.309 0-0.619 0-0.928 0-14.146-0.005-14.146-0.005-16.42-1.464-1.452-1.554-2.229-2.696-2.478-4.841-0.019-0.145-0.039-0.29-0.059-0.439-0.489-3.875-0.949-9.428 1.45-12.778 1.047-1.291 2.16-2.464 3.478-3.478-0.689-0.153-1.377-0.306-2.087-0.464 0-0.612 0-1.224 0-1.855 0.54-0.27 0.892-0.278 1.493-0.29 0.181-0.006 0.363-0.012 0.55-0.018 0.508 0.076 0.508 0.076 0.922 0.384 0.282 0.388 0.282 0.388 0.282 1.083 0.706-0.658 1.201-1.318 1.696-2.145 0.516-0.819 1.034-1.62 1.638-2.377 0.168-0.212 0.168-0.212 0.339-0.428 1.781-1.363 4.044-1.182 6.168-1.172zM13.681 1.391c0 0.077 0 0.153 0 0.232 5.050 0 10.101 0 15.304 0 0-0.077 0-0.153 0-0.232-5.050 0-10.101 0-15.304 0zM15.768 1.855c0 0.077 0 0.153 0 0.232 2.143 0 4.285 0 6.493 0 0-0.077 0-0.153 0-0.232-2.143 0-4.285 0-6.493 0zM24.58 1.855c0 0.077 0 0.153 0 0.232 0.765 0 1.53 0 2.319 0 0-0.077 0-0.153 0-0.232-0.765 0-1.53 0-2.319 0zM15.536 3.014c0.928 0.232 0.928 0.232 0.928 0.232zM17.159 3.014c0 0.077 0 0.153 0 0.232 0.536 0 1.071 0 1.623 0 0-0.077 0-0.153 0-0.232-0.536 0-1.071 0-1.623 0zM23.884 3.014c0 0.077 0 0.153 0 0.232 0.536 0 1.071 0 1.623 0 0-0.077 0-0.153 0-0.232-0.536 0-1.071 0-1.623 0zM26.203 3.014c0.928 0.232 0.928 0.232 0.928 0.232zM13.449 4.174c0.077 0.23 0.153 0.459 0.232 0.696 0.179-0.017 0.357-0.033 0.542-0.051 0.233-0.022 0.465-0.043 0.705-0.065 0.231-0.022 0.463-0.043 0.701-0.065 0.603-0.051 0.603-0.051 1.067-0.051 0.033 0.182 0.067 0.363 0.101 0.551 0.102 0.6 0.102 0.6 0.362 1.072 4.2 0.415 4.2 0.415 8.348 0 0.43-0.59 0.464-0.886 0.464-1.623 1.121-0.019 2.142 0.011 3.246 0.232 0-0.23 0-0.459 0-0.696-1.185-0.481-2.194-0.52-3.449-0.493-0.182 0.002-0.363 0.004-0.551 0.006-0.444 0.005-0.889 0.014-1.333 0.023 0 0.153 0 0.306 0 0.464-1.683 0-3.367 0-5.101 0 0-0.153 0-0.306 0-0.464-0.628-0.013-1.256-0.022-1.884-0.029-0.176-0.004-0.353-0.008-0.534-0.012-1.067-0.009-1.91 0.097-2.915 0.505zM6.261 6.029c0 0.153 0 0.306 0 0.464 0.153 0 0.306 0 0.464 0 0-0.153 0-0.306 0-0.464-0.153 0-0.306 0-0.464 0zM35.942 6.029c0 0.153 0 0.306 0 0.464 0.153 0 0.306 0 0.464 0 0-0.153 0-0.306 0-0.464-0.153 0-0.306 0-0.464 0zM10.203 7.42c-0.077 0.153-0.153 0.306-0.232 0.464 1.295 0.366 2.439 0.531 3.782 0.524 0.183 0.001 0.366 0.002 0.554 0.002 0.598 0.002 1.197 0.001 1.795-0.001 0.419 0 0.838 0.001 1.258 0.001 0.876 0.001 1.753-0 2.629-0.002 1.12-0.003 2.239-0.001 3.359 0.002 0.865 0.002 1.73 0.001 2.595-0 0.413-0 0.825 0 1.238 0.001 0.578 0.001 1.156-0.001 1.734-0.003 0.252 0.001 0.252 0.001 0.51 0.003 1.156-0.009 2.158-0.212 3.272-0.527-0.115-0.23-0.115-0.23-0.232-0.464-7.346 0-14.692 0-22.261 0zM6.261 8.812c-0.745 1.206-1.201 2.301-1.391 3.71 0.874 0.194 1.749 0.387 2.623 0.58 0.373 0.083 0.373 0.083 0.753 0.168 0.358 0.078 0.358 0.078 0.722 0.159 0.22 0.049 0.44 0.097 0.666 0.147 0.586 0.128 0.586 0.128 1.264 0.106-0.351-1.852-0.966-3.571-1.623-5.333 0.783 0.695 1.147 1.317 1.522 2.29 0.381 0.976 0.788 1.867 1.261 2.812 6.122 0 12.243 0 18.551 0 0.383-0.918 0.765-1.837 1.159-2.783 1.054-2.034 1.054-2.034 1.623-2.319-0.049 0.137-0.098 0.274-0.149 0.415-0.222 0.62-0.442 1.24-0.663 1.861-0.077 0.215-0.155 0.431-0.235 0.653-0.073 0.207-0.146 0.414-0.222 0.627-0.068 0.191-0.136 0.381-0.206 0.578-0.182 0.528-0.182 0.528-0.149 1.2 2.016-0.356 4.023-0.753 6.029-1.159-0.29-1.825-0.892-3.335-2.317-4.576-0.72-0.454-1.251-0.377-2.089-0.293-0.271 0.113-0.541 0.227-0.82 0.343-1.198 0.461-2.357 0.484-3.63 0.512-0.257 0.008-0.514 0.015-0.778 0.023-4.847 0.125-9.708 0.126-14.555-0.023-0.228-0.005-0.456-0.010-0.69-0.016-1.363-0.053-2.386-0.313-3.643-0.839-1.355-0.187-2.159 0.101-3.014 1.159zM4.246 10.261c-1.1 1.114-1.9 2.394-2.391 3.884 0.023 0.637 0.023 0.637 0.232 1.159 0.153 0.077 0.306 0.153 0.464 0.232 0.153-0.918 0.306-1.837 0.464-2.783 0.536-0.153 1.071-0.306 1.623-0.464 0.23-0.918 0.459-1.837 0.696-2.783-0.454 0-0.776 0.462-1.087 0.754zM37.333 9.507c0.23 0.918 0.459 1.837 0.696 2.783 0.536 0.153 1.071 0.306 1.623 0.464 0.153 0.918 0.306 1.837 0.464 2.783 0.23-0.153 0.459-0.306 0.696-0.464-0.095-2.181-1.387-3.825-2.918-5.292-0.287-0.298-0.287-0.298-0.561-0.274zM3.71 12.754c0 0.077 0 0.153 0 0.232 0.383 0 0.765 0 1.159 0 0-0.077 0-0.153 0-0.232-0.383 0-0.765 0-1.159 0zM37.797 12.754c0 0.077 0 0.153 0 0.232 0.383 0 0.765 0 1.159 0 0-0.077 0-0.153 0-0.232-0.383 0-0.765 0-1.159 0zM3.942 13.449c-0.499 0.748-0.51 0.993-0.464 1.855 0.23 0.077 0.459 0.153 0.696 0.232 0.077-0.612 0.153-1.224 0.232-1.855-0.153-0.077-0.306-0.153-0.464-0.232zM38.261 13.449c0.077 0.689 0.153 1.377 0.232 2.087 0.23-0.077 0.459-0.153 0.696-0.232-0.077-0.536-0.153-1.071-0.232-1.623-0.23-0.077-0.459-0.153-0.696-0.232zM12.058 13.913c0.115 0.574 0.115 0.574 0.232 1.159-0.153 0-0.306 0-0.464 0 0.153 0.995 0.306 1.99 0.464 3.014-0.306-0.23-0.612-0.459-0.928-0.696-0.758-0.268-1.523-0.283-2.322-0.323-0.271-0.016-0.542-0.032-0.822-0.048-0.567-0.032-1.134-0.062-1.701-0.089-1.656-0.103-2.76-0.345-4.198-1.163-0.306 0-0.612 0-0.928 0 0 0.612 0 1.224 0 1.855 0.077 0 0.153 0 0.232 0 0.077 1.224 0.153 2.449 0.232 3.71 0.153 0 0.306 0 0.464 0 0.057 0.297 0.115 0.593 0.174 0.899 0.179 0.787 0.179 0.787 0.783 1.304 0.143 0.038 0.287 0.077 0.435 0.116-0.077-0.612-0.153-1.224-0.232-1.855 1.024 0.071 2.048 0.144 3.072 0.217 0.291 0.020 0.582 0.040 0.881 0.061 0.279 0.020 0.559 0.040 0.847 0.061 0.386 0.027 0.386 0.027 0.78 0.055 0.562 0.057 1.067 0.144 1.608 0.301-0.068 0.468-0.136 0.936-0.204 1.404-0.067 0.47-0.067 0.47 0.204 0.915-0.189-0.021-0.379-0.042-0.574-0.064-0.862-0.095-1.724-0.19-2.585-0.284-0.298-0.033-0.596-0.066-0.903-0.101-0.288-0.031-0.577-0.063-0.874-0.095-0.265-0.029-0.529-0.058-0.802-0.088-0.72-0.061-1.424-0.075-2.145-0.064 0.563 0.68 1.002 0.819 1.864 0.956 0.228 0.036 0.456 0.072 0.69 0.11 1.031 0.141 2.061 0.254 3.098 0.341 0.226 0.019 0.453 0.038 0.686 0.058 8.315 0.658 16.8 0.643 25.111-0.058 0.207-0.017 0.414-0.035 0.628-0.052 1.059-0.098 2.11-0.231 3.16-0.398 0.207-0.033 0.414-0.066 0.627-0.099 0.596-0.177 0.845-0.383 1.237-0.856-2.635 0.166-5.258 0.424-7.884 0.696 0.077-0.23 0.153-0.459 0.232-0.696-0.064-0.543-0.14-1.084-0.232-1.623 2.395-0.324 4.775-0.564 7.188-0.696-0.077 0.612-0.153 1.224-0.232 1.855 0.471-0.099 0.471-0.099 0.928-0.464 0.228-0.615 0.338-1.207 0.464-1.855 0.153 0 0.306 0 0.464 0 0.077-1.224 0.153-2.449 0.232-3.71 0.077 0 0.153 0 0.232 0 0-0.612 0-1.224 0-1.855-0.944-0.076-0.944-0.076-1.715 0.447-1.338 0.704-2.758 0.675-4.242 0.741-0.557 0.028-1.113 0.057-1.669 0.089-0.244 0.011-0.489 0.022-0.741 0.034-1.009 0.12-1.691 0.447-2.532 1.008 0.153-0.995 0.306-1.99 0.464-3.014-0.153 0-0.306 0-0.464 0 0.077-0.383 0.153-0.765 0.232-1.159-6.122 0-12.243 0-18.551 0zM8.348 14.377c0.112 1.077 0.112 1.077 0.464 2.087 1.033-0.115 1.033-0.115 2.087-0.232 0.28-0.84 0.126-1.076-0.232-1.855-0.765 0-1.53 0-2.319 0zM32 14.377c-0.169 0.459-0.323 0.923-0.464 1.391 0.077 0.153 0.153 0.306 0.232 0.464 0.493 0.108 0.493 0.108 1.058 0.145 0.192 0.017 0.383 0.035 0.581 0.053 0.148 0.011 0.296 0.023 0.448 0.034 0.347-0.782 0.464-1.207 0.464-2.087-0.765 0-1.53 0-2.319 0zM5.333 14.609c0.077 0.153 0.153 0.306 0.232 0.464 0.077-0.153 0.153-0.306 0.232-0.464-0.153 0-0.306 0-0.464 0zM36.87 14.609c0.153 0.153 0.306 0.306 0.464 0.464 0-0.153 0-0.306 0-0.464-0.153 0-0.306 0-0.464 0zM36.406 14.841c0 0.153 0 0.306 0 0.464 0.306 0.077 0.612 0.153 0.928 0.232-0.227-0.237-0.459-0.469-0.696-0.696-0.077 0-0.153 0-0.232 0zM6.029 14.841c-0.23 0.23-0.459 0.459-0.696 0.696 0.306-0.077 0.612-0.153 0.928-0.232-0.077-0.153-0.153-0.306-0.232-0.464zM1.159 18.087c0 1.071 0 2.143 0 3.246 0.077 0 0.153 0 0.232 0 0-1.071 0-2.143 0-3.246-0.077 0-0.153 0-0.232 0zM41.275 18.087c0 0.995 0 1.99 0 3.015 0.077 0 0.153 0 0.232 0 0-0.995 0-1.99 0-3.014-0.077 0-0.153 0-0.232 0zM1.391 22.029c0.232 0.464 0.232 0.464 0.232 0.464zM41.043 22.029c0.232 0.464 0.232 0.464 0.232 0.464zM1.391 22.957c0.232 0.696 0.232 0.696 0.232 0.696zM2.087 22.957c0.232 0.464 0.232 0.464 0.232 0.464zM41.043 22.957c0.232 0.696 0.232 0.696 0.232 0.696zM1.391 24.116c0.045 0.975 0.177 1.332 0.855 2.058 0.825 0.529 1.202 0.607 2.159 0.493-0.153-0.153-0.306-0.306-0.464-0.464-0.057-0.191-0.115-0.383-0.174-0.58-0.246-0.654-0.246-0.654-1-0.855-0.225-0.062-0.45-0.124-0.681-0.188-0.077-0.153-0.153-0.306-0.232-0.464-0.153 0-0.306 0-0.464 0zM40.812 24.116c-0.23 0.344-0.23 0.344-0.464 0.696-0.234 0.072-0.469 0.143-0.71 0.217-0.225 0.081-0.45 0.163-0.681 0.246-0.191 0.455-0.191 0.455-0.232 0.928-0.153 0.153-0.306 0.306-0.464 0.464 0.957 0.114 1.334 0.037 2.159-0.493 0.678-0.726 0.81-1.083 0.855-2.058-0.153 0-0.306 0-0.464 0zM11.13 25.971c-0.077 0.23-0.153 0.459-0.232 0.696 0.552 0.714 0.84 0.913 1.744 1.068 0.332 0.015 0.664 0.026 0.995 0.032 0.182 0.007 0.364 0.013 0.551 0.020 0.604 0.019 1.207 0.031 1.811 0.040 0.208 0.003 0.417 0.007 0.631 0.010 1.337 0.019 2.674 0.023 4.012 0.020 0.69-0.001 1.379 0 2.069 0.001 1.318 0.001 2.636-0.010 3.955-0.032 0.309-0.005 0.309-0.005 0.624-0.009 0.58-0.011 1.159-0.029 1.738-0.050 0.171-0.003 0.342-0.006 0.517-0.010 0.819-0.038 1.229-0.109 1.871-0.637 0.116-0.149 0.231-0.299 0.351-0.453-0.115-0.344-0.115-0.344-0.232-0.696-6.734 0-13.468 0-20.406 0zM4.406 26.667c0 0.077 0 0.153 0 0.232 0.383 0 0.765 0 1.159 0 0-0.077 0-0.153 0-0.232-0.383 0-0.765 0-1.159 0zM37.101 26.667c0 0.077 0 0.153 0 0.232 0.383 0 0.765 0 1.159 0 0-0.077 0-0.153 0-0.232-0.383 0-0.765 0-1.159 0zM6.725 26.899c0 0.077 0 0.153 0 0.232 0.383 0 0.765 0 1.159 0 0-0.077 0-0.153 0-0.232-0.383 0-0.765 0-1.159 0zM34.783 26.899c0 0.077 0 0.153 0 0.232 0.383 0 0.765 0 1.159 0 0-0.077 0-0.153 0-0.232-0.383 0-0.765 0-1.159 0zM9.275 27.13c0 0.077 0 0.153 0 0.232 0.459 0 0.918 0 1.391 0 0-0.077 0-0.153 0-0.232-0.459 0-0.918 0-1.391 0zM32 27.13c0 0.077 0 0.153 0 0.232 0.459 0 0.918 0 1.391 0 0-0.077 0-0.153 0-0.232-0.459 0-0.918 0-1.391 0zM17.159 28.754c0 0.077 0 0.153 0 0.232 0.536 0 1.071 0 1.623 0 0-0.077 0-0.153 0-0.232-0.536 0-1.071 0-1.623 0zM23.884 28.754c0 0.077 0 0.153 0 0.232 0.536 0 1.071 0 1.623 0 0-0.077 0-0.153 0-0.232-0.536 0-1.071 0-1.623 0z"></path>
<path d="M16.928 19.478c2.908 0 5.816 0 8.812 0-0.077 0.23-0.153 0.459-0.232 0.696-0.153-0.077-0.306-0.153-0.464-0.232 0 0.153 0 0.306 0 0.464 1.607 0 3.214 0 4.87 0 0.014 0.636 0.029 1.272 0.043 1.928 0.009 0.299 0.009 0.299 0.019 0.604 0.002 0.158 0.003 0.317 0.005 0.48 0.004 0.162 0.007 0.323 0.011 0.489-0.105 0.588-0.303 0.779-0.775 1.137-0.766 0.252-1.485 0.263-2.288 0.266-0.274 0.001-0.548 0.003-0.83 0.004-0.295 0-0.59 0.001-0.894 0.001s-0.608 0.002-0.922 0.002c-0.644 0.001-1.287 0.002-1.931 0.002-0.822-0-1.645 0.003-2.467 0.007-0.787 0.003-1.574 0.003-2.362 0.003-0.294 0.002-0.588 0.003-0.892 0.005-0.275-0.001-0.551-0.001-0.835-0.002-0.362 0-0.362 0-0.731 0.001-0.761-0.063-1.376-0.229-2.081-0.521-0.383-0.767-0.255-1.622-0.246-2.464 0.005-0.641 0.010-1.282 0.014-1.942 1.607 0 3.214 0 4.87 0 0-0.153 0-0.306 0-0.464-0.23 0.077-0.459 0.153-0.696 0.232 0-0.23 0-0.459 0-0.696z"></path>
<path d="M15.389 14.751c0.44-0.003 0.44-0.003 0.889-0.007 0.318 0.001 0.636 0.003 0.955 0.004 0.328-0 0.657-0.001 0.985-0.002 0.687-0.001 1.374 0 2.061 0.004 0.879 0.004 1.757 0.002 2.636-0.002 0.678-0.003 1.355-0.002 2.033 0 0.324 0 0.648-0 0.972-0.002 0.453-0.002 0.907 0.001 1.36 0.005 0.258 0.001 0.515 0.001 0.78 0.002 0.786 0.1 1.228 0.305 1.854 0.784 0.113 0.575 0.113 0.575 0.072 1.203-0.010 0.209-0.021 0.418-0.032 0.633-0.013 0.159-0.027 0.319-0.041 0.483-0.153 0.077-0.306 0.153-0.464 0.232 0-0.153 0-0.306 0-0.464-1.301 0-2.602 0-3.942 0 0 0.23 0 0.459 0 0.696-0.464-0.232-0.464-0.232-0.696-0.696-2.372 0-4.744 0-7.188 0 0 0.23 0 0.459 0 0.696-0.153 0-0.306 0-0.464 0 0-0.23 0-0.459 0-0.696-1.301 0-2.602 0-3.942 0-0.077 0.153-0.153 0.306-0.232 0.464-0.385-0.385-0.299-0.834-0.319-1.362-0.011-0.205-0.023-0.41-0.034-0.621 0.121-0.567 0.121-0.567 0.616-0.945 0.772-0.369 1.287-0.406 2.14-0.408z"></path>
<path d="M11.826 18.551c6.275 0 12.55 0 19.015 0-0.077 0.153-0.153 0.306-0.232 0.464-6.122 0-12.243 0-18.551 0-0.077-0.153-0.153-0.306-0.232-0.464z"></path>
<path d="M38.725 18.551c0.232 0.232 0.232 0.232 0.275 0.899-0.043 0.725-0.043 0.725-0.507 1.42-0.81 0.27-1.469 0.263-2.319 0.232-0.232-0.232-0.232-0.232-0.255-0.66 0.008-0.476 0.015-0.951 0.023-1.427 0.954-0.463 1.728-0.525 2.783-0.464zM36.406 19.478c-0.058 0.599-0.058 0.599 0 1.159 1.111 0.054 1.111 0.054 2.087-0.464 0.058-0.599 0.058-0.599 0-1.159-1.111-0.054-1.111-0.054-2.087 0.464z"></path>
<path d="M4.696 18.507c0.807 0.040 1.311 0.159 2.029 0.507 0.023 1.427 0.023 1.427 0 1.855-0.232 0.232-0.232 0.232-1 0.275-0.774-0.039-1.158-0.075-1.783-0.507-0.317-0.634-0.262-1.155-0.232-1.855 0.232-0.232 0.232-0.232 0.986-0.275zM4.174 19.015c-0.058 0.56-0.058 0.56 0 1.159 0.797 0.531 1.156 0.505 2.087 0.464 0.058-0.56 0.058-0.56 0-1.159-0.797-0.531-1.156-0.505-2.087-0.464z"></path>
</svg>
